<?xml version="1.0" encoding="utf-8"?>
<!-- Uploaded to: SVG Repo, www.svgrepo.com, Generator: SVG Repo Mixer Tools -->
<svg width="800px" height="800px" viewBox="0 0 1024 1024" class="icon"  version="1.1" xmlns="http://www.w3.org/2000/svg"><path d="M506.8 185.8c-164.6 0-298.1 132.4-298.1 295.8 0 104.8 55 196.8 137.8 249.3L288.7 825l137.1-58.8a300.6 300.6 0 0 0 81 11.1c164.6 0 298.1-132.4 298.1-295.8S671.4 185.8 506.8 185.8z" fill="#F68F3B" /><path d="M703.9 361.5c-4.9 0-9.7-2.5-12.3-7.1-31.7-54.8-90.6-73.2-91.2-73.4-7.5-2.3-11.7-10.1-9.4-17.6 2.3-7.4 10.2-11.6 17.6-9.4 2.8 0.8 70.1 21.5 107.6 86.3 3.9 6.7 1.6 15.4-5.2 19.2-2.2 1.4-4.7 2-7.1 2zM551.7 268.8c-1.2 0-2.5-0.1-3.7-0.5-21.3-5.7-38.9-3.2-39.1-3.2-7.8 1.2-15-4.1-16.1-11.8-1.2-7.7 4.1-14.8 11.8-16 1-0.1 23.4-3.5 50.8 3.8 7.6 2 12 9.8 10 17.3-1.7 6.2-7.4 10.4-13.7 10.4z" fill="#FFFFFF" /><path d="M506.8 167c-174.8 0-317 141.1-317 314.6 0 101.7 48.7 195.7 131.3 254.9l-48.6 78.9c-4.2 6.9-3.5 15.8 1.8 21.9 3.7 4.3 9 6.6 14.4 6.6 2.4 0 4.8-0.5 7.1-1.4L427 786c26.1 6.7 52.9 10.1 79.8 10.1 174.8 0 317-141.1 317-314.6 0-173.4-142.2-314.5-317-314.5z m0 591.6c-25.5 0-51.1-3.5-75.9-10.4-4.1-1.2-8.4-0.9-12.3 0.7l-84.4 37.5 28.4-45.8c5.3-8.7 2.6-20-6-25.5-80.8-51.3-129-138.6-129-233.5 0-152.7 125.2-277 279.1-277s279.1 124.3 279.1 277c0.1 152.7-125.1 277-279 277z" fill="#211F1E" /><path d="M661.5 423.4c0-20.7-16.9-37.6-37.9-37.6-20.9 0-37.8 16.8-37.8 37.6 0 20.7 16.9 37.6 37.8 37.6 21 0 37.9-16.8 37.9-37.6zM433.1 423.4c0-20.7-16.9-37.6-37.9-37.6-20.9 0-37.8 16.8-37.8 37.6 0 20.7 16.9 37.6 37.8 37.6 21 0 37.9-16.8 37.9-37.6zM597.5 531.6c-9.7-3.9-20.7 0.7-24.7 10.3-0.2 0.4-16.2 38-63.4 38-48.6 0-61.6-32.8-62.9-36.8-3.2-9.8-13.9-15.1-23.7-12-10 3.1-15.5 13.7-12.3 23.6 0.8 2.6 21 62.8 98.9 62.8 72.3 0 97.4-58.8 98.4-61.3 4-9.7-0.6-20.6-10.3-24.6zM303.2 502.4c-4.1 0-7.3 3.3-7.3 7.3s3.3 7.3 7.3 7.3 7.3-3.3 7.3-7.3-3.3-7.3-7.3-7.3zM336.8 502.4c-4.1 0-7.3 3.3-7.3 7.3s3.3 7.3 7.3 7.3 7.3-3.3 7.3-7.3c0.1-4-3.2-7.3-7.3-7.3zM320 525.1c-4.1 0-7.3 3.3-7.3 7.3s3.3 7.3 7.3 7.3 7.3-3.3 7.3-7.3c0-4.1-3.2-7.3-7.3-7.3zM353.7 525.1c-4 0-7.3 3.3-7.3 7.3s3.3 7.3 7.3 7.3 7.3-3.3 7.3-7.3c0-4.1-3.3-7.3-7.3-7.3zM336.8 546.9c-4.1 0-7.3 3.3-7.3 7.3s3.3 7.3 7.3 7.3 7.3-3.3 7.3-7.3c0.1-4-3.2-7.3-7.3-7.3zM374.8 502.4c-4.1 0-7.3 3.3-7.3 7.3s3.3 7.3 7.3 7.3 7.3-3.3 7.3-7.3-3.2-7.3-7.3-7.3zM654.7 502.4c-4.1 0-7.3 3.3-7.3 7.3s3.3 7.3 7.3 7.3 7.3-3.3 7.3-7.3c0.1-4-3.2-7.3-7.3-7.3zM688.4 502.4c-4.1 0-7.3 3.3-7.3 7.3s3.3 7.3 7.3 7.3 7.3-3.3 7.3-7.3-3.2-7.3-7.3-7.3zM671.6 525.1c-4.1 0-7.3 3.3-7.3 7.3s3.3 7.3 7.3 7.3 7.3-3.3 7.3-7.3c0-4.1-3.3-7.3-7.3-7.3zM705.3 525.1c-4 0-7.3 3.3-7.3 7.3s3.3 7.3 7.3 7.3 7.3-3.3 7.3-7.3c0-4.1-3.3-7.3-7.3-7.3zM688.4 546.9c-4.1 0-7.3 3.3-7.3 7.3s3.3 7.3 7.3 7.3 7.3-3.3 7.3-7.3-3.2-7.3-7.3-7.3zM726.4 502.4c-4.1 0-7.3 3.3-7.3 7.3s3.3 7.3 7.3 7.3 7.3-3.3 7.3-7.3-3.3-7.3-7.3-7.3z" fill="#211F1E" /></svg>