<!DOCTYPE svg PUBLIC "-//W3C//DTD SVG 1.1//EN" "http://www.w3.org/Graphics/SVG/1.1/DTD/svg11.dtd">
<!-- Uploaded to: SVG Repo, www.svgrepo.com, Transformed by: SVG Repo Mixer Tools -->
<svg width="800px" height="800px" viewBox="-8.96 -8.96 49.92 49.92" xmlns="http://www.w3.org/2000/svg" fill="#000000">
<g id="SVGRepo_bgCarrier" stroke-width="0"/>
<g id="SVGRepo_tracerCarrier" stroke-linecap="round" stroke-linejoin="round"/>
<g id="SVGRepo_iconCarrier">
<path d="m16 0c8.836556 0 16 7.163444 16 16s-7.163444 16-16 16-16-7.163444-16-16 7.163444-16 16-16zm1.3 20.5h-2.6v2.6h2.6zm-1.3-11.5c-2.209139 0-4 1.790861-4 4h2l.0054857-.1492623c.0763492-1.0348599.9401525-1.8507377 1.9945143-1.8507377 1.1045695 0 2 .8954305 2 2s-.8954305 2-2 2h-1v4h2l.0006624-2.126188c1.7248911-.4442732 2.9993376-2.0102111 2.9993376-3.873812 0-2.209139-1.790861-4-4-4z" fill="#0070fc" fill-rule="evenodd"/>
</g>
</svg>