<!DOCTYPE svg PUBLIC "-//W3C//DTD SVG 1.1//EN" "http://www.w3.org/Graphics/SVG/1.1/DTD/svg11.dtd">

<!-- Uploaded to: SVG Repo, www.svgrepo.com, Transformed by: SVG Repo Mixer Tools -->
<svg fill="#140836" height="800px" width="800px" version="1.1" id="Layer_1" xmlns="http://www.w3.org/2000/svg" xmlns:xlink="http://www.w3.org/1999/xlink" viewBox="0 0 507.9 507.9" xml:space="preserve" stroke="#140836" stroke-width="0.005079">

<g id="SVGRepo_bgCarrier" stroke-width="0"/>

<g id="SVGRepo_tracerCarrier" stroke-linecap="round" stroke-linejoin="round"/>

<g id="SVGRepo_iconCarrier"> <g> <g> <path d="M465.7,96.55H324.9v-21.6c0-7.8-6.3-14.1-14.1-14.1H197.2c-7.8,0-14.1,6.3-14.1,14.1v21.6H42.3c-23.3,0-42.3,19-42.3,42.3 v265.9c0,23.3,19,42.3,42.3,42.3h423.3c23.3,0,42.3-19,42.3-42.3v-265.9C508,115.55,489,96.55,465.7,96.55z M296.7,89.05v32.1 h-85.4v-32.1H296.7z M465.7,418.85H42.3c-7.8,0-14.1-6.3-14.1-14.1v-265.9c0-7.8,6.3-14.1,14.1-14.1h140.8v10.5 c0,7.8,6.3,14.1,14.1,14.1h113.6c7.8,0,14.1-6.3,14.1-14.1v-10.5h140.7c7.8,0,14.1,6.3,14.1,14.1v265.9h0.1 C479.8,412.55,473.5,418.85,465.7,418.85z"/> </g> </g> <g> <g> <path d="M440.6,173.65H254c-7.8,0-14.1,6.3-14.1,14.1s6.3,14.1,14.1,14.1h186.6c7.8,0,14.1-6.3,14.1-14.1 S448.4,173.65,440.6,173.65z"/> </g> </g> <g> <g> <path d="M440.6,241.95H254c-7.8,0-14.1,6.3-14.1,14.1s6.3,14.1,14.1,14.1h186.6c7.8,0,14.1-6.3,14.1-14.1 C454.7,248.25,448.4,241.95,440.6,241.95z"/> </g> </g> <g> <g> <path d="M440.6,310.35H254c-7.8,0-14.1,6.3-14.1,14.1c0,7.8,6.3,14.1,14.1,14.1h186.6c7.8,0,14.1-6.3,14.1-14.1 S448.4,310.35,440.6,310.35z"/> </g> </g> <g> <g> <path d="M180.1,160.45H67.4c-7.8,0-14.1,6.3-14.1,14.1v130.5c0,7.8,6.3,14.1,14.1,14.1h112.7c7.8,0,14.1-6.3,14.1-14.1v-130.5 C194.2,166.85,187.9,160.45,180.1,160.45z M166,290.95H81.6v-102.2H166V290.95z"/> </g> </g> <g> <g> <path d="M180.1,354.85H67.4c-7.8,0-14.1,6.3-14.1,14.1c0,7.8,6.3,14.1,14.1,14.1h112.7c7.8,0,14.1-6.3,14.1-14.1 S187.9,354.85,180.1,354.85z"/> </g> </g> </g>

</svg>