<!DOCTYPE svg PUBLIC "-//W3C//DTD SVG 1.1//EN" "http://www.w3.org/Graphics/SVG/1.1/DTD/svg11.dtd">
<!-- Uploaded to: SVG Repo, www.svgrepo.com, Transformed by: SVG Repo Mixer Tools -->
<svg fill="#0070fc" width="800px" height="800px" viewBox="-5.44 -5.44 42.88 42.88" id="icon" xmlns="http://www.w3.org/2000/svg" stroke="#0070fc" stroke-width="0.00032">
<g id="SVGRepo_bgCarrier" stroke-width="0"/>
<g id="SVGRepo_tracerCarrier" stroke-linecap="round" stroke-linejoin="round"/>
<g id="SVGRepo_iconCarrier">
<defs>
<style>.cls-1{fill:none;}</style>
</defs>
<title>medication--reminder</title>
<path d="M20,2H4A2,2,0,0,0,2,4V8a2,2,0,0,0,2,2V28a2,2,0,0,0,2,2H18a2,2,0,0,0,2-2V10a2,2,0,0,0,2-2V4A2,2,0,0,0,20,2ZM6,14H9V24H6ZM18,28H6V26h5V12H6V10H18ZM4,8V4H20V8Z" transform="translate(0 0)"/>
<circle cx="26" cy="16" r="4"/>
<rect id="_Transparent_Rectangle_" data-name="&lt;Transparent Rectangle&gt;" class="cls-1" width="32" height="32"/>
</g>
</svg>